<svg width="127" height="28" viewBox="0 0 127 28" fill="none" xmlns="http://www.w3.org/2000/svg">
<path d="M18.9682 14.8903C18.9959 12.7288 20.1532 10.6836 21.989 9.55149C20.8308 7.89236 18.891 6.84043 16.8728 6.77709C14.7203 6.55045 12.6335 8.06913 11.5366 8.06913C10.4184 8.06913 8.72956 6.79959 6.91094 6.83712C4.54045 6.91395 2.33055 8.26584 1.17726 10.3447C-1.30187 14.6502 0.547334 20.9778 2.92213 24.458C4.11029 26.1622 5.49892 28.0658 7.3159 27.9983C9.09392 27.9243 9.75798 26.861 11.9042 26.861C14.0305 26.861 14.6535 27.9983 16.5074 27.9553C18.4153 27.9243 19.6174 26.2436 20.7638 24.5233C21.6175 23.309 22.2745 21.967 22.7103 20.5469C20.4681 19.5956 18.9708 17.3323 18.9682 14.8903Z" fill="white"/>
<path d="M15.4666 4.48832C16.5068 3.23566 17.0193 1.62558 16.8952 0C15.3059 0.167441 13.8378 0.929367 12.7835 2.13397C11.7525 3.31092 11.216 4.89268 11.3174 6.45612C12.9073 6.47254 14.4703 5.73127 15.4666 4.48832Z" fill="white"/>
<path d="M90.7023 8.81534V11.73H88.881V13.6413H90.7023V20.1359C90.7023 22.3535 91.7024 23.2406 94.2186 23.2406C94.6607 23.2406 95.0818 23.1878 95.4503 23.1244V21.2341C95.1345 21.2658 94.9345 21.2869 94.587 21.2869C93.4606 21.2869 92.9658 20.7589 92.9658 19.5551V13.6413H95.4503V11.73H92.9658V8.81534H90.7023Z" fill="white"/>
<path d="M101.86 23.399C105.208 23.399 107.261 21.1496 107.261 17.4219C107.261 13.7153 105.197 11.4554 101.86 11.4554C98.5122 11.4554 96.4488 13.7153 96.4488 17.4219C96.4488 21.1496 98.5017 23.399 101.86 23.399ZM101.86 21.382C99.8913 21.382 98.7859 19.9352 98.7859 17.4219C98.7859 14.9297 99.8913 13.4724 101.86 13.4724C103.818 13.4724 104.934 14.9297 104.934 17.4219C104.934 19.9247 103.818 21.382 101.86 21.382Z" fill="white"/>
<path d="M109.017 23.1772H111.281V16.387C111.281 14.7713 112.491 13.6836 114.207 13.6836C114.607 13.6836 115.281 13.7575 115.471 13.8209V11.5821C115.228 11.5187 114.797 11.4871 114.46 11.4871C112.965 11.4871 111.691 12.3108 111.365 13.4407H111.196V11.6772H109.017V23.1772Z" fill="white"/>
<path d="M121.091 13.3879C122.765 13.3879 123.86 14.5601 123.912 16.3659H118.122C118.248 14.5706 119.417 13.3879 121.091 13.3879ZM123.902 20.0725C123.481 20.9701 122.544 21.4665 121.175 21.4665C119.364 21.4665 118.196 20.1887 118.122 18.1717V18.045H126.218V17.2529C126.218 13.6413 124.291 11.4554 121.101 11.4554C117.869 11.4554 115.816 13.7892 115.816 17.4641C115.816 21.1391 117.827 23.399 121.112 23.399C123.733 23.399 125.565 22.1317 126.081 20.0725H123.902Z" fill="white"/>
<path d="M75.8589 18.9304C76.0335 21.7543 78.3795 23.5603 81.8712 23.5603C85.603 23.5603 87.9381 21.6668 87.9381 18.6458C87.9381 16.2707 86.6069 14.9573 83.377 14.202L81.6421 13.7752C79.5907 13.2936 78.7614 12.6478 78.7614 11.5204C78.7614 10.0975 80.049 9.16718 81.9804 9.16718C83.8135 9.16718 85.0793 10.0756 85.3084 11.5314H87.6871C87.5453 8.87165 85.2102 7 82.0131 7C78.5759 7 76.2845 8.87165 76.2845 11.6846C76.2845 14.005 77.583 15.3841 80.4309 16.0518L82.4605 16.5443C84.5446 17.0369 85.4612 17.7593 85.4612 18.9633C85.4612 20.3643 84.0208 21.3822 82.0567 21.3822C79.9508 21.3822 78.4886 20.4299 78.2813 18.9304H75.8589Z" fill="white"/>
<path d="M52.4118 11.4871C50.8538 11.4871 49.5062 12.2685 48.8114 13.578H48.6429V11.6772H46.4637V27H48.7272V21.4348H48.9061C49.5062 22.6492 50.8011 23.3673 52.4329 23.3673C55.328 23.3673 57.1704 21.0757 57.1704 17.4219C57.1704 13.7681 55.328 11.4871 52.4118 11.4871ZM51.7697 21.3292C49.8747 21.3292 48.685 19.8296 48.685 17.4325C48.685 15.0247 49.8747 13.5252 51.7802 13.5252C53.6962 13.5252 54.8437 14.9931 54.8437 17.4219C54.8437 19.8613 53.6962 21.3292 51.7697 21.3292Z" fill="white"/>
<path d="M65.0906 11.4871C63.5325 11.4871 62.1849 12.2685 61.4901 13.578H61.3216V11.6772H59.1424V27H61.4059V21.4348H61.5848C62.1849 22.6492 63.4798 23.3673 65.1116 23.3673C68.0067 23.3673 69.8491 21.0757 69.8491 17.4219C69.8491 13.7681 68.0067 11.4871 65.0906 11.4871ZM64.4484 21.3292C62.5534 21.3292 61.3638 19.8296 61.3638 17.4325C61.3638 15.0247 62.5534 13.5252 64.4589 13.5252C66.3749 13.5252 67.5225 14.9931 67.5225 17.4219C67.5225 19.8613 66.3749 21.3292 64.4484 21.3292Z" fill="white"/>
<path d="M42.4027 23.1772H44.9996L39.3147 7.38309H36.685L31 23.1772H33.5097L34.9609 18.9851H40.9623L42.4027 23.1772ZM37.8743 10.2508H38.0598L40.3404 16.9274H35.5829L37.8743 10.2508Z" fill="white"/>
</svg>
