<svg width="16" height="16" viewBox="0 0 16 16" fill="none" xmlns="http://www.w3.org/2000/svg">
<path d="M9.5 0V1.32706L13.7271 1.33176L8.5 6.56L9.44006 7.5L14.6682 2.27294L14.6729 6.5H16L16 1.58198e-07L9.5 0Z" fill="black"/>
<path d="M-1.92846e-08 6.5L1.32706 6.5L1.33176 2.27294L6.56 7.5L7.5 6.55994L2.27294 1.33176L6.5 1.32706L6.5 -2.84124e-07L-1.69637e-07 -9.53674e-07L-1.92846e-08 6.5Z" fill="black"/>
<path d="M6.5 16L6.5 14.6729L2.27294 14.6682L7.5 9.44L6.55994 8.5L1.33176 13.7271L1.32706 9.5L5.68248e-07 9.5L-9.53674e-07 16L6.5 16Z" fill="black"/>
<path d="M16 9.5L14.6729 9.5L14.6682 13.7271L9.44 8.5L8.5 9.44006L13.7271 14.6682L9.5 14.6729L9.5 16L16 16L16 9.5Z" fill="black"/>
</svg>
