<svg width="153" height="28" viewBox="0 0 153 28" fill="none" xmlns="http://www.w3.org/2000/svg">
<path fill-rule="evenodd" clip-rule="evenodd" d="M90.2355 16.742L95.4305 14.5838C95.1444 13.8585 94.2861 13.3515 93.2747 13.3515C91.9747 13.3515 90.1703 14.4959 90.2355 16.742ZM96.3314 18.8326L98.3115 20.1526C97.6741 21.0988 96.1332 22.7275 93.4704 22.7275C90.1703 22.7275 87.7861 20.1727 87.7861 16.9177C87.7861 13.4594 90.1929 11.1054 93.1843 11.1054C96.2009 11.1054 97.6741 13.5046 98.1584 14.8046L98.4219 15.4646L90.6521 18.677C91.2469 19.8439 92.1704 20.4387 93.4704 20.4387C94.7679 20.4387 95.6714 19.7988 96.3314 18.8326ZM83.7406 22.3762H86.2929V5.29559H83.7406V22.3762ZM79.5746 16.9378C79.5746 14.8924 78.2093 13.3942 76.4702 13.3942C74.7109 13.3942 73.2352 14.8924 73.2352 16.9378C73.2352 18.9631 74.7109 20.4387 76.4702 20.4387C78.2093 20.4387 79.5746 18.9631 79.5746 16.9378ZM81.8182 11.4593V21.8918C81.8182 26.1833 79.2885 27.945 76.2945 27.945C73.4762 27.945 71.7822 26.0528 71.1447 24.5119L73.3683 23.5858C73.7648 24.5319 74.7335 25.6538 76.297 25.6538C78.2118 25.6538 79.4014 24.4667 79.4014 22.2432V21.4074H79.3136C78.7414 22.1127 77.6397 22.7275 76.2543 22.7275C73.3482 22.7275 70.6855 20.1953 70.6855 16.9378C70.6855 13.6577 73.3482 11.1054 76.2543 11.1054C77.6422 11.1054 78.7414 11.7203 79.3136 12.4029H79.4014V11.4567C79.3989 11.4593 81.8182 11.4593 81.8182 11.4593ZM53.9587 16.9177C53.9587 14.8247 52.468 13.3967 50.7389 13.3967C49.0097 13.3967 47.519 14.8272 47.519 16.9177C47.519 18.9857 49.0097 20.4387 50.7389 20.4387C52.4655 20.4387 53.9587 18.9857 53.9587 16.9177ZM56.4634 16.9177C56.4634 20.2631 53.891 22.7275 50.7364 22.7275C47.5818 22.7275 45.0094 20.2631 45.0094 16.9177C45.0094 13.5498 47.5818 11.1079 50.7364 11.1079C53.8935 11.1079 56.4634 13.5498 56.4634 16.9177ZM66.7955 16.9177C66.7955 14.8247 65.3048 13.3967 63.5757 13.3967C61.8465 13.3967 60.3558 14.8272 60.3558 16.9177C60.3558 18.9857 61.8465 20.4387 63.5757 20.4387C65.3048 20.4387 66.7955 18.9857 66.7955 16.9177ZM69.3026 16.9177C69.3026 20.2631 66.7303 22.7275 63.5757 22.7275C60.4211 22.7275 57.8487 20.2631 57.8487 16.9177C57.8487 13.5498 60.4211 11.1079 63.5757 11.1079C66.7303 11.1079 69.3026 13.5498 69.3026 16.9177ZM35.1992 22.7275C30.2251 22.7275 26.0441 18.677 26.0441 13.7029C26.0441 8.72877 30.2276 4.67822 35.2017 4.67822C37.9548 4.67822 39.9123 5.75737 41.388 7.16778L39.6488 8.90696C38.5922 7.91565 37.1617 7.14519 35.2017 7.14519C31.5703 7.14519 28.7294 10.0739 28.7294 13.7054C28.7294 17.3368 31.5703 20.2631 35.2017 20.2631C37.5558 20.2631 38.8984 19.3169 39.7592 18.4586C40.4644 17.7559 40.9262 16.742 41.1019 15.3567H35.2017V12.8923H43.4986C43.5889 13.3314 43.6316 13.861 43.6316 14.4332C43.6316 16.2828 43.1246 18.5716 41.4984 20.2003C39.9098 21.8491 37.8845 22.7275 35.1992 22.7275Z" fill="white"/>
<path d="M104.452 22.2154V7.05273H106.4L111.673 16.2858H111.758L117.031 7.05273H118.979V22.2154H117.031V13.2152L117.115 10.674H117.031L112.287 18.9965H111.144L106.4 10.674H106.315L106.4 13.2152V22.2154H104.452Z" fill="white"/>
<path d="M124.972 22.5541C123.871 22.5541 122.95 22.2364 122.208 21.6011C121.467 20.9658 121.097 20.1293 121.097 19.0811C121.097 17.9481 121.531 17.0693 122.41 16.4234C123.288 15.7775 124.369 15.4598 125.65 15.4598C126.793 15.4598 127.736 15.6716 128.466 16.0951V15.7987C128.466 15.0363 128.202 14.4222 127.683 13.9669C127.164 13.5116 126.518 13.2786 125.756 13.2786C125.194 13.2786 124.676 13.4163 124.22 13.681C123.765 13.9457 123.447 14.3163 123.278 14.7822L121.499 14.0198C121.743 13.3951 122.208 12.8233 122.918 12.2939C123.627 11.7645 124.559 11.4998 125.713 11.4998C127.037 11.4998 128.138 11.8915 129.017 12.6645C129.896 13.4374 130.33 14.5386 130.33 15.9469V22.2152H128.466V20.7752H128.382C127.609 21.9611 126.465 22.5541 124.972 22.5541ZM125.29 20.7752C126.094 20.7752 126.825 20.4787 127.482 19.8752C128.138 19.2717 128.466 18.5622 128.466 17.7469C127.916 17.2916 127.09 17.0693 125.989 17.0693C125.046 17.0693 124.326 17.2704 123.85 17.6834C123.373 18.0963 123.13 18.5728 123.13 19.1234C123.13 19.6317 123.352 20.034 123.786 20.3305C124.22 20.627 124.729 20.7752 125.29 20.7752Z" fill="white"/>
<path d="M137.922 22.5541C137.128 22.5541 136.418 22.3847 135.793 22.0458C135.169 21.707 134.692 21.2835 134.385 20.7752H134.3L134.385 22.2152V26.7894H132.437V11.8386H134.3V13.2786H134.385C134.692 12.7704 135.169 12.3468 135.793 12.008C136.418 11.6692 137.128 11.4998 137.922 11.4998C139.266 11.4998 140.421 12.0292 141.395 13.088C142.369 14.1469 142.856 15.4598 142.856 17.0269C142.856 18.594 142.369 19.907 141.395 20.9658C140.421 22.0246 139.266 22.5541 137.922 22.5541ZM137.604 20.7752C138.504 20.7752 139.288 20.4364 139.933 19.7481C140.579 19.0599 140.908 18.1599 140.908 17.0269C140.908 15.894 140.579 14.9939 139.933 14.3057C139.288 13.6174 138.504 13.2786 137.604 13.2786C136.683 13.2786 135.91 13.6174 135.264 14.2951C134.618 14.9728 134.3 15.8834 134.3 17.0269C134.3 18.1705 134.618 19.0811 135.264 19.7587C135.91 20.4364 136.693 20.7752 137.604 20.7752Z" fill="white"/>
<path d="M148.5 22.5541C147.345 22.5541 146.382 22.2682 145.63 21.707C144.878 21.1458 144.317 20.4364 143.968 19.5893L145.704 18.8693C146.255 20.1717 147.197 20.8176 148.521 20.8176C149.124 20.8176 149.622 20.6799 150.014 20.4152C150.405 20.1505 150.596 19.7905 150.596 19.3564C150.596 18.6787 150.12 18.2234 149.177 17.9799L147.081 17.4716C146.414 17.3022 145.789 16.9846 145.196 16.5081C144.603 16.0316 144.306 15.3963 144.306 14.5916C144.306 13.6704 144.709 12.9292 145.524 12.3574C146.339 11.7856 147.303 11.4998 148.415 11.4998C149.336 11.4998 150.151 11.7115 150.871 12.1245C151.591 12.5374 152.11 13.141 152.417 13.9139L150.723 14.6128C150.342 13.6916 149.548 13.2363 148.351 13.2363C147.769 13.2363 147.282 13.3527 146.89 13.5963C146.498 13.8398 146.297 14.1575 146.297 14.5704C146.297 15.1634 146.752 15.5657 147.674 15.7775L149.728 16.2645C150.702 16.4869 151.422 16.8787 151.888 17.4293C152.354 17.9799 152.587 18.6046 152.587 19.2928C152.587 20.2246 152.205 20.9976 151.443 21.6223C150.681 22.2364 149.696 22.5541 148.5 22.5541Z" fill="white"/>
<path d="M5.37817 20.7471C6.244 21.8287 7.12237 23.1839 7.58414 24.0046C8.1463 25.0712 8.37719 25.7914 8.7963 27.0764C9.04224 27.7841 9.27313 27.9999 9.76251 27.9999C10.2971 27.9999 10.5405 27.6385 10.7287 27.0764C11.1177 25.8642 11.4214 24.9432 11.8957 24.0623C12.8318 22.3758 14.0163 20.8751 15.1683 19.4345C15.4845 19.0305 17.5047 16.6513 18.4132 14.7641C18.4132 14.7641 19.5225 12.7012 19.5225 9.8176C19.5225 7.12226 18.4258 5.24756 18.4258 5.24756L15.2536 6.09833L13.3212 11.1728L12.8443 11.8655L12.744 11.996L12.6135 12.1541L12.3976 12.4126L12.0814 12.7288L10.3648 14.1266L6.08338 16.6062L5.37817 20.7471Z" fill="#34A853"/>
<path d="M0.951172 14.418C2.00271 16.8122 4.00791 18.9027 5.37817 20.7473L12.631 12.1543C12.631 12.1543 11.6071 13.4944 9.7625 13.4944C7.69958 13.4944 6.02816 11.8506 6.02816 9.77515C6.02816 8.34717 6.87893 7.36841 6.87893 7.36841L1.96005 8.68095L0.951172 14.418Z" fill="#FBBC04"/>
<path d="M12.7163 0.446777C15.123 1.22476 17.1859 2.85352 18.4257 5.26277L12.6284 12.1693C12.6284 12.1693 13.4792 11.1755 13.4792 9.76254C13.4792 7.6419 11.6923 6.04326 9.75991 6.04326C7.92788 6.04326 6.87634 7.37086 6.87634 7.37086V3.01413L12.7163 0.446777Z" fill="#4285F4"/>
<path d="M2.27625 3.48839C3.71678 1.7718 6.24147 0 9.72986 0C11.4163 0 12.6988 0.446715 12.6988 0.446715L6.87641 7.36829H2.75308L2.27625 3.48839Z" fill="#1A73E8"/>
<path d="M0.951152 14.4178C0.951152 14.4178 0 12.5281 0 9.80511C0 7.22521 1.00887 4.97406 2.2913 3.50342L6.89146 7.3808L0.951152 14.4178Z" fill="#EA4335"/>
</svg>
