<svg width="123" height="28" viewBox="0 0 123 28" fill="none" xmlns="http://www.w3.org/2000/svg">
<g filter="url(#filter0_ii_1179_316)">
<path d="M0.500383 0.432253C0.185888 0.767549 -4.61741e-07 1.28791 -4.61741e-07 1.96177V26.0378C-4.61741e-07 26.7127 0.185888 27.232 0.500383 27.5673L0.580357 27.6456L13.9696 14.1587V13.9998V13.8408L0.580357 0.352783L0.500383 0.432253Z" fill="url(#paint0_linear_1179_316)"/>
<path d="M18.4318 18.6557L13.9695 14.1586V13.9997V13.8407L18.4329 9.34473L18.5334 9.40242L23.8215 12.4288C25.3313 13.2932 25.3313 14.7073 23.8215 15.5727L18.5334 18.5991L18.4318 18.6557Z" fill="url(#paint1_linear_1179_316)"/>
<g filter="url(#filter1_i_1179_316)">
<path d="M18.5334 18.5979L13.9684 13.9995L0.500245 27.567C0.997385 28.0983 1.81983 28.1636 2.74602 27.6345L18.5334 18.5979Z" fill="url(#paint2_linear_1179_316)"/>
</g>
<path d="M18.5334 9.40143L2.74602 0.365859C1.81983 -0.1643 0.997385 -0.0978939 0.500245 0.433354L13.9695 14.0009L18.5334 9.40143Z" fill="url(#paint3_linear_1179_316)"/>
</g>
<path d="M62.0105 11.9719C59.5317 11.9719 57.5113 13.8628 57.5113 16.4672C57.5113 19.0557 59.5317 20.9624 62.0105 20.9624C64.4905 20.9624 66.5108 19.0557 66.5108 16.4672C66.5098 13.8628 64.4894 11.9719 62.0105 11.9719ZM62.0105 19.1931C60.652 19.1931 59.4811 18.0695 59.4811 16.4682C59.4811 14.85 60.6531 13.7434 62.0105 13.7434C63.3691 13.7434 64.54 14.85 64.54 16.4682C64.54 18.0685 63.3691 19.1931 62.0105 19.1931ZM52.1942 11.9719C49.7154 11.9719 47.695 13.8628 47.695 16.4672C47.695 19.0557 49.7154 20.9624 52.1942 20.9624C54.6741 20.9624 56.6945 19.0557 56.6945 16.4672C56.6945 13.8628 54.6741 11.9719 52.1942 11.9719ZM52.1942 19.1931C50.8357 19.1931 49.6648 18.0695 49.6648 16.4682C49.6648 14.85 50.8368 13.7434 52.1942 13.7434C53.5527 13.7434 54.7237 14.85 54.7237 16.4682C54.7247 18.0685 53.5527 19.1931 52.1942 19.1931ZM40.5188 13.3523V15.2591H45.0697C44.9337 16.3319 44.5775 17.1151 44.0336 17.6594C43.3718 18.3232 42.3358 19.0557 40.5188 19.0557C37.7174 19.0557 35.5274 16.7906 35.5274 13.9812C35.5274 11.1718 37.7174 8.90675 40.5188 8.90675C42.0301 8.90675 43.1336 9.50288 43.9483 10.2692L45.2899 8.92366C44.1517 7.83394 42.6414 7 40.5188 7C36.6814 7 33.4553 10.1328 33.4553 13.9812C33.4553 17.8296 36.6814 20.9624 40.5188 20.9624C42.5897 20.9624 44.1527 20.2807 45.3742 19.0039C46.6305 17.744 47.0215 15.9725 47.0215 14.5425C47.0215 14.1006 46.9878 13.6916 46.9193 13.3513L40.5188 13.3523ZM88.2703 14.8331C87.8972 13.829 86.759 11.9719 84.4329 11.9719C82.1238 11.9719 80.2046 13.7941 80.2046 16.4672C80.2046 18.987 82.1069 20.9624 84.6532 20.9624C86.7073 20.9624 87.8962 19.7025 88.3894 18.9701L86.8612 17.948C86.3521 18.6974 85.6555 19.191 84.6532 19.191C83.652 19.191 82.9385 18.7312 82.48 17.8285L88.4737 15.3426L88.2703 14.8331ZM82.1575 16.3319C82.1069 14.5942 83.4992 13.7096 84.5014 13.7096C85.2824 13.7096 85.9443 14.1017 86.1656 14.6629L82.1575 16.3319ZM77.2852 20.6908H79.2539V7.47775H77.2852V20.6908ZM74.058 12.9771H73.9906C73.549 12.4486 72.6995 11.9719 71.6308 11.9719C69.3891 11.9719 67.335 13.9474 67.335 16.4851C67.335 19.0049 69.3891 20.9635 71.6308 20.9635C72.7006 20.9635 73.549 20.4868 73.9906 19.9425H74.058V20.5893C74.058 22.309 73.1411 23.2285 71.6646 23.2285C70.4589 23.2285 69.7116 22.3608 69.406 21.6283L67.6912 22.3439C68.1834 23.5351 69.4903 25 71.6646 25C73.9737 25 75.9267 23.6376 75.9267 20.3166V12.2457H74.0591L74.058 12.9771ZM71.8005 19.1931C70.442 19.1931 69.3048 18.0516 69.3048 16.4851C69.3048 14.9008 70.442 13.7434 71.8005 13.7434C73.1411 13.7434 74.194 14.9008 74.194 16.4851C74.194 18.0516 73.1411 19.1931 71.8005 19.1931ZM97.4964 7.47775H92.7843V20.6908H94.7499V15.685H97.4954C99.6749 15.685 101.819 14.1028 101.819 11.5819C101.819 9.06107 99.676 7.47775 97.4964 7.47775ZM97.547 13.8459H94.7499V9.31685H97.547C99.0173 9.31685 99.852 10.5376 99.852 11.5819C99.852 12.6051 99.0173 13.8459 97.547 13.8459ZM109.701 11.9487C108.277 11.9487 106.803 12.5776 106.192 13.9717L107.938 14.7021C108.311 13.9717 109.006 13.7328 109.735 13.7328C110.752 13.7328 111.786 14.3448 111.802 15.4324V15.5688C111.446 15.3648 110.683 15.0593 109.752 15.0593C107.87 15.0593 105.954 16.0962 105.954 18.0336C105.954 19.8019 107.497 20.9402 109.226 20.9402C110.547 20.9402 111.277 20.3452 111.734 19.6476H111.801V20.6675H113.701V15.6015C113.702 13.2572 111.954 11.9487 109.701 11.9487ZM109.463 19.1899C108.82 19.1899 107.921 18.8665 107.921 18.0674C107.921 17.0474 109.04 16.6564 110.007 16.6564C110.87 16.6564 111.278 16.8435 111.802 17.0982C111.65 18.3232 110.599 19.1899 109.463 19.1899ZM120.617 12.2372L118.362 17.9659H118.295L115.955 12.2372H113.837L117.345 20.2437L115.345 24.6977H117.396L122.803 12.2372H120.617ZM102.904 20.6908H104.87V7.47775H102.904V20.6908Z" fill="white"/>
<defs>
<filter id="filter0_ii_1179_316" x="0" y="0" width="24.9539" height="28" filterUnits="userSpaceOnUse" color-interpolation-filters="sRGB">
<feFlood flood-opacity="0" result="BackgroundImageFix"/>
<feBlend mode="normal" in="SourceGraphic" in2="BackgroundImageFix" result="shape"/>
<feColorMatrix in="SourceAlpha" type="matrix" values="0 0 0 0 0 0 0 0 0 0 0 0 0 0 0 0 0 0 127 0" result="hardAlpha"/>
<feOffset dy="-0.168513"/>
<feComposite in2="hardAlpha" operator="arithmetic" k2="-1" k3="1"/>
<feColorMatrix type="matrix" values="0 0 0 0 0 0 0 0 0 0 0 0 0 0 0 0 0 0 0.12 0"/>
<feBlend mode="normal" in2="shape" result="effect1_innerShadow_1179_316"/>
<feColorMatrix in="SourceAlpha" type="matrix" values="0 0 0 0 0 0 0 0 0 0 0 0 0 0 0 0 0 0 127 0" result="hardAlpha"/>
<feOffset dy="0.168513"/>
<feComposite in2="hardAlpha" operator="arithmetic" k2="-1" k3="1"/>
<feColorMatrix type="matrix" values="0 0 0 0 1 0 0 0 0 1 0 0 0 0 1 0 0 0 0.25 0"/>
<feBlend mode="normal" in2="effect1_innerShadow_1179_316" result="effect2_innerShadow_1179_316"/>
</filter>
<filter id="filter1_i_1179_316" x="0.500244" y="13.9995" width="18.0332" height="14.0005" filterUnits="userSpaceOnUse" color-interpolation-filters="sRGB">
<feFlood flood-opacity="0" result="BackgroundImageFix"/>
<feBlend mode="normal" in="SourceGraphic" in2="BackgroundImageFix" result="shape"/>
<feColorMatrix in="SourceAlpha" type="matrix" values="0 0 0 0 0 0 0 0 0 0 0 0 0 0 0 0 0 0 127 0" result="hardAlpha"/>
<feOffset dy="-0.168513"/>
<feComposite in2="hardAlpha" operator="arithmetic" k2="-1" k3="1"/>
<feColorMatrix type="matrix" values="0 0 0 0 0 0 0 0 0 0 0 0 0 0 0 0 0 0 0.08 0"/>
<feBlend mode="normal" in2="shape" result="effect1_innerShadow_1179_316"/>
</filter>
<linearGradient id="paint0_linear_1179_316" x1="12.7828" y1="1.70703" x2="-5.48603" y2="19.8435" gradientUnits="userSpaceOnUse">
<stop stop-color="#00A0FF"/>
<stop offset="0.0066" stop-color="#00A1FF"/>
<stop offset="0.2601" stop-color="#00BEFF"/>
<stop offset="0.5122" stop-color="#00D2FF"/>
<stop offset="0.7604" stop-color="#00DFFF"/>
<stop offset="1" stop-color="#00E3FF"/>
</linearGradient>
<linearGradient id="paint1_linear_1179_316" x1="25.7868" y1="13.9997" x2="-0.362618" y2="13.9997" gradientUnits="userSpaceOnUse">
<stop stop-color="#FFE000"/>
<stop offset="0.4087" stop-color="#FFBD00"/>
<stop offset="0.7754" stop-color="#FFA500"/>
<stop offset="1" stop-color="#FF9C00"/>
</linearGradient>
<linearGradient id="paint2_linear_1179_316" x1="16.0543" y1="16.4967" x2="-8.72043" y2="41.092" gradientUnits="userSpaceOnUse">
<stop stop-color="#FF3A44"/>
<stop offset="1" stop-color="#C31162"/>
</linearGradient>
<linearGradient id="paint3_linear_1179_316" x1="-2.89176" y1="-7.5813" x2="8.17086" y2="3.40119" gradientUnits="userSpaceOnUse">
<stop stop-color="#32A071"/>
<stop offset="0.0685" stop-color="#2DA771"/>
<stop offset="0.4762" stop-color="#15CF74"/>
<stop offset="0.8009" stop-color="#06E775"/>
<stop offset="1" stop-color="#00F076"/>
</linearGradient>
</defs>
</svg>
