<svg width="64" height="64" viewBox="0 0 64 64" fill="none" xmlns="http://www.w3.org/2000/svg">
  <path d="M8 34.6667V16C8 12.2288 8 10.3431 9.17157 9.17157C10.3431 8 12.2288 8 16 8H48C51.7712 8 53.6569 8 54.8284 9.17157C56 10.3431 56 12.2288 56 16V48C56 51.7712 56 53.6569 54.8284 54.8284C53.6569 56 51.7712 56 48 56H32" stroke="currentColor" stroke-width="3"/>
  <path fill-rule="evenodd" clip-rule="evenodd" d="M54 41.2117L47.6516 34.8632L47.5757 34.7874C46.7457 33.9572 46.0085 33.2199 45.3455 32.7265C44.6342 32.1971 43.7436 31.7444 42.6539 31.9212C41.5643 32.098 40.8626 32.8091 40.3551 33.5363C39.8822 34.214 39.416 35.1466 38.8911 36.1966L38.8911 36.1967L38.8431 36.2927L37.3388 39.3014C37.2075 39.5639 37.0988 39.7811 37.0011 39.9678C36.8611 39.8104 36.703 39.626 36.5119 39.4031L22.4722 23.0235L21.496 21.8846L19.2183 23.837L20.1944 24.9759L34.2342 41.3555L34.2921 41.4232C34.6841 41.8807 35.0794 42.3423 35.4528 42.6666C35.8666 43.0261 36.5277 43.4629 37.4179 43.3533C38.3081 43.2437 38.8435 42.6596 39.1578 42.2105C39.4413 41.8053 39.713 41.2616 39.9822 40.7227L40.0221 40.643L41.5264 37.6343C42.1144 36.4584 42.4837 35.7284 42.8153 35.2531C42.9708 35.0303 43.0716 34.9341 43.1213 34.8956C43.1268 34.8914 43.1313 34.8881 43.135 34.8856C43.1393 34.8868 43.1446 34.8885 43.1511 34.8908C43.2105 34.9116 43.3365 34.9709 43.5545 35.1332C44.0194 35.4792 44.6006 36.0549 45.5302 36.9846L52.2727 43.727L53.3333 44.7877L54 44.121V41.2117Z" fill="currentColor"/>
  <circle cx="44" cy="20" r="4" fill="currentColor"/>
  <path d="M8 40V38.5H6.5V40H8ZM12.9393 47.0606L14 48.1213L16.1213 46L15.0607 44.9393L12.9393 47.0606ZM8 56H6.5V57.5H8V56ZM15.0607 51.0607L16.1213 50L14 47.8787L12.9393 48.9393L15.0607 51.0607ZM24 40H25.5V38.5H24V40ZM14.9393 46.9393L13.8787 48L16 50.1213L17.0606 49.0607L14.9393 46.9393ZM24 56V57.5H25.5V56H24ZM19.0606 48.9393L18 47.8787L15.8787 50L16.9393 51.0607L19.0606 48.9393ZM9.5 46V40H6.5V46H9.5ZM8 41.5H14V38.5H8V41.5ZM6.93934 41.0606L12.9393 47.0606L15.0607 44.9393L9.06066 38.9393L6.93934 41.0606ZM6.5 50V56H9.5V50H6.5ZM8 57.5H14V54.5H8V57.5ZM9.06066 57.0607L15.0607 51.0607L12.9393 48.9393L6.93934 54.9393L9.06066 57.0607ZM25.5 46V40H22.5V46H25.5ZM24 38.5H18V41.5H24V38.5ZM22.9393 38.9393L14.9393 46.9393L17.0606 49.0607L25.0606 41.0606L22.9393 38.9393ZM22.5 50V56H25.5V50H22.5ZM24 54.5H18V57.5H24V54.5ZM25.0606 54.9393L19.0606 48.9393L16.9393 51.0607L22.9393 57.0607L25.0606 54.9393Z" fill="currentColor"/>
</svg>