<svg width="54" height="16" viewBox="0 0 54 16" fill="none" xmlns="http://www.w3.org/2000/svg">
<path d="M27.2728 2.19064V0.363272H20.5079V2.19064H22.871V15.7918H24.9097V2.19064H27.2728Z" fill="white"/>
<path d="M35.1749 15.7918V0.363272H33.0898V6.40053H30.0317V0.363272H27.9466V15.7918H30.0317V8.15851H33.0898V15.7918H35.1749Z" fill="white"/>
<path d="M44.8139 8.36669C44.8139 6.46992 44.7676 3.46286 43.8177 1.82054C43.1459 0.687109 42.0802 0.178223 40.7828 0.178223C39.3001 0.178223 38.2576 0.710242 37.6089 2.05185C36.8212 3.69417 36.7749 5.91477 36.7749 7.71901C36.7749 9.54638 36.8444 12.6691 37.7247 14.2652C38.3734 15.4449 39.5086 16 40.8291 16C43.4007 16 44.2116 14.2652 44.5823 11.9983C44.7676 10.7955 44.8139 9.59264 44.8139 8.36669ZM42.6362 7.78841C42.6362 9.13002 42.6594 11.7901 42.2423 12.9698C41.9875 13.6406 41.5473 14.0801 40.806 14.0801C39.6476 14.0801 39.3233 13.0161 39.1611 12.0677C38.9063 10.4716 38.9526 8.80618 38.9526 7.18699C38.9526 6.09982 38.9526 3.57852 39.5781 2.69953C39.8793 2.26003 40.2268 2.05185 40.7828 2.05185C41.7095 2.05185 42.1265 2.6764 42.3119 3.50912C42.6362 4.897 42.6362 6.3774 42.6362 7.78841Z" fill="white"/>
<path d="M53.4519 15.7918L50.5097 8.29729C52.3167 7.88093 52.7337 5.89164 52.7337 4.38811C52.7337 3.16215 52.4557 1.72802 51.4132 0.941554C50.7182 0.409535 50 0.363272 49.1659 0.363272H46.409V15.7918H48.4941V8.598L51.3205 15.7918H53.4519ZM48.4941 2.07498H48.8416C49.444 2.07498 49.9536 2.14438 50.3012 2.72266C50.6255 3.27781 50.7182 4.13367 50.7182 4.75821C50.7182 5.47528 50.5792 6.35427 50 6.84002C49.583 7.18699 49.0269 7.21012 48.4941 7.21012V2.07498Z" fill="white"/>
<path d="M8.24589 0C3.48352 0 0 1.82234 0 4.17488C0 8.87994 5.14632 15.814 8.24589 15.814C11.3455 15.814 16.4918 8.87994 16.4918 4.17488C16.4918 1.82234 13.0083 0 8.24589 0Z" fill="white"/>
<path d="M12.2266 5.48286L12.6502 2.81932C12.6593 2.76135 12.6131 2.70951 12.5541 2.71148L5.03246 2.96892C4.98752 2.97039 4.94998 3.00355 4.94306 3.04777L4.51953 5.71131C4.51039 5.76928 4.55657 5.82112 4.6156 5.81915L7.07679 5.7349C7.13951 5.73268 7.18866 5.78795 7.17878 5.84961L6.50631 10.0394C6.49643 10.1003 6.5478 10.1538 6.60954 10.1469L7.63961 10.0322C7.70727 10.0251 7.7621 10.0858 7.74777 10.1519L7.05431 13.3288C7.03209 13.4307 7.16915 13.4868 7.22521 13.3986L10.2937 8.5839C10.3344 8.52003 10.286 8.43725 10.21 8.44069L9.0732 8.49301C9.00874 8.49596 8.96059 8.43479 8.97886 8.37313L9.77333 5.7064C9.78469 5.66783 9.81976 5.64106 9.86001 5.63958L12.1372 5.56171C12.1822 5.55999 12.2197 5.52708 12.2266 5.48286Z" fill="#1D1D1D"/>
</svg>
