<svg width="94" height="28" viewBox="0 0 94 28" fill="none" xmlns="http://www.w3.org/2000/svg">
<path d="M47.9617 3.83375V0.635848H36.0651V3.83375H40.2207V27.6358H43.806V3.83375H47.9617Z" fill="white"/>
<path d="M61.8582 27.6358V0.635848H58.1914V11.201H52.8135V0.635848H49.1467V27.6358H52.8135V14.2775H58.1914V27.6358H61.8582Z" fill="white"/>
<path d="M78.8093 14.6418C78.8093 11.3225 78.7278 6.06013 77.0574 3.18607C75.8759 1.20256 74.0018 0.312012 71.7202 0.312012C69.1128 0.312012 67.2794 1.24304 66.1386 3.59087C64.7534 6.46493 64.6719 10.351 64.6719 13.5084C64.6719 16.7063 64.7941 22.171 66.3423 24.9641C67.4831 27.0286 69.4794 28.0001 71.8017 28.0001C76.3241 28.0001 77.75 24.9641 78.4019 20.9971C78.7278 18.8922 78.8093 16.7873 78.8093 14.6418ZM74.9796 13.6298C74.9796 15.9777 75.0203 20.6328 74.287 22.6973C73.8388 23.8712 73.0647 24.6403 71.761 24.6403C69.7239 24.6403 69.1535 22.7782 68.8683 21.1186C68.4201 18.3255 68.5016 15.4109 68.5016 12.5774C68.5016 10.6748 68.5016 6.26253 69.6017 4.7243C70.1313 3.95518 70.7424 3.59087 71.7202 3.59087C73.3499 3.59087 74.0833 4.68382 74.4092 6.14109C74.9796 8.56987 74.9796 11.1606 74.9796 13.6298Z" fill="white"/>
<path d="M94 27.6358L88.8258 14.5204C92.0036 13.7918 92.737 10.3105 92.737 7.67932C92.737 5.53389 92.2481 3.02415 90.4147 1.64784C89.1924 0.716808 87.9294 0.635848 86.4627 0.635848H81.6145V27.6358H85.2812V15.0466L90.2517 27.6358H94ZM85.2812 3.63135H85.8923C86.9516 3.63135 87.848 3.75279 88.4591 4.76478C89.0295 5.73629 89.1924 7.23404 89.1924 8.32699C89.1924 9.58186 88.948 11.1201 87.9294 11.9702C87.1961 12.5774 86.2183 12.6178 85.2812 12.6178V3.63135Z" fill="white"/>
<path d="M14.5011 0C6.12609 0 0 3.1891 0 7.30603C0 15.5399 9.05026 27.6746 14.5011 27.6746C19.952 27.6746 29.0023 15.5399 29.0023 7.30603C29.0023 3.1891 22.8762 0 14.5011 0Z" fill="#FF4000"/>
<path d="M21.5014 9.59489L22.2463 4.93369C22.2623 4.83223 22.1811 4.74153 22.0773 4.74497L8.84987 5.19548C8.77083 5.19806 8.70482 5.2561 8.69266 5.33348L7.94784 9.99467C7.93177 10.0961 8.01298 10.1868 8.11678 10.1834L12.445 10.0359C12.5553 10.0321 12.6417 10.1288 12.6244 10.2367L11.4418 17.5687C11.4244 17.6754 11.5147 17.7691 11.6233 17.757L13.4348 17.5563C13.5538 17.5438 13.6502 17.65 13.625 17.7656L12.4055 23.3253C12.3664 23.5037 12.6074 23.6017 12.706 23.4474L18.1022 15.0217C18.1738 14.9099 18.0887 14.7651 17.955 14.7711L15.9559 14.8626C15.8425 14.8678 15.7578 14.7608 15.79 14.6529L17.1871 9.98608C17.2071 9.91859 17.2688 9.87173 17.3395 9.86915L21.3442 9.73288C21.4233 9.72987 21.4893 9.67227 21.5014 9.59489Z" fill="white"/>
</svg>
