<svg width="144" height="24" viewBox="0 0 144 24" fill="none" xmlns="http://www.w3.org/2000/svg">
<g clip-path="url(#clip0_1112_212)">
<path d="M9.57606 0C4.2872 0 0 4.29792 0 9.6C0 12.2501 1.07108 14.6496 2.80339 16.3867C4.53618 18.1248 8.61845 20.64 8.85786 23.28C8.89374 23.6758 9.17961 24 9.57606 24C9.97251 24 10.2584 23.6758 10.2943 23.28C10.5337 20.64 14.6159 18.1248 16.3487 16.3867C18.081 14.6496 19.1521 12.2501 19.1521 9.6C19.1521 4.29792 14.8649 0 9.57606 0Z" fill="url(#paint0_linear_1112_212)"/>
<path d="M9.57599 12.9605C11.427 12.9605 12.9276 11.4562 12.9276 9.60048C12.9276 7.7448 11.427 6.24048 9.57599 6.24048C7.72493 6.24048 6.22437 7.7448 6.22437 9.60048C6.22437 11.4562 7.72493 12.9605 9.57599 12.9605Z" fill="white"/>
<path d="M35.8553 17.7619H38.3842V3.20001H34.7058C31.0064 3.20001 29.0627 5.10668 29.0627 7.91431C29.0627 10.1562 30.1285 11.4762 32.0305 12.8381L28.7283 17.7619H31.4662L35.1446 12.2514L33.8697 11.3924C32.3231 10.3448 31.5707 9.52764 31.5707 7.76763C31.5707 6.21716 32.6574 5.16955 34.7266 5.16955H35.8553V17.7619ZM69.0655 17.0495V15.0172C68.2922 15.541 66.9964 16.0019 65.7841 16.0019C63.9659 16.0019 63.2762 15.1429 63.1717 13.3829H69.17V12.0629C69.17 8.3962 67.5608 7.01335 65.0736 7.01335C62.043 7.01335 60.601 9.33907 60.601 12.5238C60.601 16.1905 62.3984 17.9714 65.5752 17.9714C67.1636 17.9714 68.334 17.5524 69.0655 17.0495ZM84.6152 17.9714C85.7647 17.9714 86.5799 17.7619 87.1859 17.3219V15.2896C86.5589 15.7295 85.8065 16.0019 84.7615 16.0019C82.985 16.0019 82.2535 14.619 82.2535 12.44C82.2535 10.1562 83.1523 8.98287 84.7825 8.98287C85.7438 8.98287 86.6844 9.31812 87.1859 9.6324V7.51621C86.6634 7.22288 85.7438 7.01335 84.5107 7.01335C81.3339 7.01335 79.6827 9.29716 79.6827 12.5029C79.6827 16.0229 81.2921 17.9714 84.6152 17.9714ZM46.2844 7.22288V11.3924H42.9613V7.22288H40.4741V17.7619H42.9613V13.3619H46.2844V17.7619H48.7714V7.22288H46.2844ZM59.9948 15.7924H58.8871V7.22288H51.6348V8.12383C51.6348 10.701 51.4676 14.0324 50.5898 15.7924H49.8165V20.1714H52.1155V17.7619H57.6959V20.1714H59.9948V15.7924ZM77.0075 17.7619H79.8291L75.8371 12.0838L79.3484 7.22288H76.8403L73.3291 12.0838V7.22288H70.842V17.7619H73.3291V12.5867L77.0075 17.7619ZM65.0318 8.98287C66.2649 8.98287 66.6411 10.0095 66.6411 11.3295V11.5391H63.1717C63.2344 9.86288 63.8405 8.98287 65.0318 8.98287ZM56.4001 15.7924H52.8888C53.5785 14.2 53.7667 11.3295 53.7667 9.50668V9.1924H56.4001V15.7924Z" fill="white"/>
<path d="M100.02 17.7619H102.967L97.7839 10.0934L102.633 3.20001H100.125L95.4222 9.90478V3.20001H92.8933V17.7619H95.4222V10.9314L100.02 17.7619Z" fill="white"/>
<path d="M111.353 10.5752C111.353 8.01905 110.057 7.05524 107.424 7.05524C105.773 7.05524 104.477 7.57905 103.724 8.01905V10.0933C104.393 9.59048 105.856 9.04571 107.131 9.04571C108.322 9.04571 108.866 9.46476 108.866 10.5962V11.1829H108.469C104.665 11.1829 102.972 12.44 102.972 14.5771C102.972 16.7143 104.268 17.9086 106.191 17.9086C107.654 17.9086 108.281 17.4266 108.761 16.9238H108.866C108.887 17.1962 108.97 17.5524 109.054 17.7619H111.478C111.395 16.9028 111.353 16.0438 111.353 15.1848V10.5752ZM108.866 15.2477C108.552 15.7086 107.967 16.0858 107.089 16.0858C106.044 16.0858 105.522 15.4572 105.522 14.5142C105.522 13.2781 106.379 12.8381 108.51 12.8381H108.866V15.2477Z" fill="white"/>
<path d="M115.578 7.2229H113.279V20.8H115.766V16.5257C116.393 17.4687 117.313 17.9715 118.379 17.9715C120.803 17.9715 122.475 16.0229 122.475 12.4819C122.475 8.96194 120.845 7.01337 118.504 7.01337C117.334 7.01337 116.372 7.55813 115.704 8.5848L115.578 7.2229ZM117.752 16.0019C116.435 16.0019 115.766 14.9334 115.766 12.5029C115.766 10.0515 116.477 8.98289 117.877 8.98289C119.236 8.98289 119.904 10.0515 119.904 12.4819C119.904 14.9334 119.194 16.0019 117.752 16.0019Z" fill="white"/>
<path d="M131.144 9.19242V7.2229H122.805V9.19242H125.73V17.7619H128.218V9.19242H131.144Z" fill="white"/>
<path d="M132.542 7.2229V17.7619H136.326C138.771 17.7619 140.506 16.5048 140.506 14.0325C140.506 11.6857 138.959 10.4496 136.368 10.4496H135.03V7.2229H132.542ZM141.425 7.2229V17.7619H143.913V7.2229H141.425ZM136.179 15.7924H135.03V12.4191H136.242C137.308 12.4191 137.935 12.901 137.935 14.1162C137.935 15.3315 137.245 15.7924 136.179 15.7924Z" fill="white"/>
</g>
<defs>
<linearGradient id="paint0_linear_1112_212" x1="9.57606" y1="0" x2="9.57606" y2="24" gradientUnits="userSpaceOnUse">
<stop stop-color="#FF6122"/>
<stop offset="1" stop-color="#F22411"/>
</linearGradient>
<clipPath id="clip0_1112_212">
<rect width="144" height="24" fill="white"/>
</clipPath>
</defs>
</svg>
